<?xml version="1.0" encoding="UTF-8" standalone="no"?>
<!-- Created with Inkscape (http://www.inkscape.org/) -->

<svg
    xmlns:dc="http://purl.org/dc/elements/1.1/"
    xmlns:cc="http://creativecommons.org/ns#"
    xmlns:rdf="http://www.w3.org/1999/02/22-rdf-syntax-ns#"
    xmlns:svg="http://www.w3.org/2000/svg"
    xmlns="http://www.w3.org/2000/svg"
    xmlns:sodipodi="http://sodipodi.sourceforge.net/DTD/sodipodi-0.dtd"
    xmlns:inkscape="http://www.inkscape.org/namespaces/inkscape"
    id="svg2"
    version="1.1"
    inkscape:version="0.91 r13725"
    width="1280"
    height="1280"
    viewBox="0 0 1280 1280"
    sodipodi:docname="victory.svg">
    <metadata id="metadata8">
        <rdf:RDF>
            <cc:Work rdf:about="">
                <dc:format>image/svg+xml</dc:format>
                <dc:type rdf:resource="http://purl.org/dc/dcmitype/StillImage"/>
                <dc:title></dc:title>
            </cc:Work>
        </rdf:RDF>
    </metadata>
    <defs id="defs6"/>
    <sodipodi:namedview
        pagecolor="#ffffff"
        bordercolor="#666666"
        borderopacity="1"
        objecttolerance="10"
        gridtolerance="10"
        guidetolerance="10"
        inkscape:pageopacity="0"
        inkscape:pageshadow="2"
        inkscape:window-width="1366"
        inkscape:window-height="705"
        id="namedview4"
        showgrid="false"
        inkscape:zoom="0.31855903"
        inkscape:cx="871.35532"
        inkscape:cy="940.95953"
        inkscape:window-x="-8"
        inkscape:window-y="-8"
        inkscape:window-maximized="1"
        inkscape:current-layer="svg2"/>
    <path
        d="M 623.06154,1273.4277 C 488.48953,1263.7646 363.55453,1164.8976 256.55434,983.39318 230.67556,939.49508 199.53704,876.81229 177.34094,823.93426 161.80258,786.91703 130.32225,700.4155 131.95163,699.21368 c 0.2667,-0.19673 5.54741,-3.68075 11.73491,-7.74229 25.41837,-16.68486 48.7169,-40.64565 64.3989,-66.22945 30.7289,-50.13146 34.06959,-116.14379 8.67541,-171.42699 C 202.66035,423.11813 176.598,394.08641 144.24873,373.0413 124.77134,360.3701 101.50791,349.10185 83.868533,343.79455 L 77.800529,341.96883 78.69365,241.7435 c 0.491217,-55.12392 1.07214,-103.03781 1.290943,-106.47531 0.218801,-3.4375 0.486984,-31.5625 0.595961,-62.500004 0.108975,-30.9375 0.481808,-57.99251 0.828513,-60.12224 l 0.630372,-3.8722501 13.612118,6.0740001 c 26.906793,12.00635 71.612283,25.80812 110.518603,34.12002 42.67424,9.11689 83.80258,14.01167 131.06872,15.59883 68.5234,2.30095 132.63056,-3.67714 201.44766,-18.78532 29.93518,-6.572 75.04294,-19.32592 98.30123,-27.79402 l 8.30122,-3.02239 8.57378,3.02974 c 41.87373,14.79706 100.88321,29.65105 147.94877,37.24198 65.90028,10.62867 143.42221,12.71008 208.74996,5.6048 65.0049,-7.07016 138.9678,-25.43533 184.5743,-45.83028 l 13.9493,-6.2380401 0.5801,5.1225801 c 0.319,2.81743 0.6727,22.27884 0.786,43.24759 0.1132,20.96875 0.7288,79.468754 1.3679,130.000004 0.639,50.53125 1.1767,105.9375 1.1948,123.125 l 0.033,31.25 -11.5551,4.18216 c -52.1094,18.85998 -96.0303,53.44859 -120.0131,94.5129 -28.9149,49.50916 -31.9902,115.13 -7.8523,167.55494 14.6851,31.89449 43.8423,64.64812 75.6852,85.02085 5.1563,3.2989 9.5517,6.13287 9.7675,6.29771 0.7705,0.5884 -14.0235,44.16618 -24.3772,71.80644 -27.2738,72.80984 -62.1764,147.23309 -97.6053,208.12499 -101.04615,173.66862 -219.05635,273.02932 -346.53506,291.77102 -19.46475,2.8616 -48.55646,3.9987 -67.5,2.6385 z"
        id="path3340"
        inkscape:connector-curvature="0"
        style="fill: #ffffff;"/>
</svg>
