<?xml version="1.0" standalone="no"?>
<!DOCTYPE svg PUBLIC "-//W3C//DTD SVG 20010904//EN"
 "http://www.w3.org/TR/2001/REC-SVG-20010904/DTD/svg10.dtd">
<svg version="1.0" xmlns="http://www.w3.org/2000/svg"
 width="512.000000pt" height="512.000000pt" viewBox="0 0 512.000000 512.000000"
 preserveAspectRatio="xMidYMid meet">
<metadata>
Created by potrace 1.11, written by Peter Selinger 2001-2013
</metadata>
<g transform="translate(0.000000,512.000000) scale(0.100000,-0.100000)"
fill="#000000" stroke="none">
<path d="M349 4902 c0 -26 -2 -231 -5 -457 -3 -225 -6 -493 -7 -594 -3 -199
-2 -205 51 -217 26 -6 110 -45 162 -75 60 -34 172 -124 215 -172 123 -138 186
-311 179 -493 -3 -76 -5 -91 -21 -159 -11 -46 -15 -57 -45 -123 -50 -108 -187
-261 -283 -318 -58 -34 -60 -19 32 -264 3 -8 7 -19 9 -25 11 -37 40 -111 45
-115 3 -3 12 -23 19 -45 12 -36 73 -175 146 -330 15 -33 36 -72 46 -87 11 -16
17 -28 15 -28 -5 0 89 -175 134 -249 43 -74 195 -299 244 -362 125 -162 280
-324 410 -427 44 -35 88 -70 98 -78 9 -8 20 -14 23 -14 3 0 24 -13 47 -28 120
-82 330 -168 462 -189 17 -3 49 -8 72 -13 59 -10 256 -10 329 2 87 13 93 14
169 36 347 98 663 343 967 746 139 186 308 468 413 691 68 144 115 246 115
250 0 2 10 25 22 52 11 26 22 53 24 58 1 6 23 66 49 135 44 119 50 135 54 152
1 4 8 23 16 42 22 53 20 60 -39 99 -98 65 -203 179 -263 287 -79 141 -101 381
-48 531 8 21 11 39 9 42 -2 2 2 10 11 17 8 7 15 19 15 26 0 16 36 81 56 101 7
8 14 18 14 21 0 12 102 116 155 159 41 33 175 115 195 120 8 2 52 19 91 36
l35 15 -3 288 c-3 307 -11 970 -12 992 -1 10 -5 10 -23 0 -13 -7 -25 -13 -28
-13 -3 -1 -23 -9 -45 -19 -52 -23 -201 -70 -289 -91 -71 -17 -85 -20 -146 -31
-36 -7 -56 -11 -88 -18 -10 -2 -45 -7 -77 -11 -33 -4 -69 -10 -80 -12 -38 -10
-541 -11 -630 -2 -112 12 -342 52 -455 79 -47 11 -95 23 -108 26 -12 2 -71 20
-132 40 l-109 35 -113 -34 c-62 -19 -124 -38 -138 -41 -14 -4 -47 -13 -75 -21
-55 -14 -237 -51 -300 -61 -22 -3 -52 -7 -66 -10 -29 -4 -103 -12 -194 -19
-129 -10 -412 -5 -541 10 -28 3 -68 8 -90 10 -21 3 -50 7 -64 10 -14 3 -40 7
-59 10 -18 2 -41 7 -50 9 -9 3 -32 7 -51 10 -19 3 -66 15 -105 26 -38 12 -79
23 -89 25 -26 6 -86 25 -111 34 -11 5 -31 13 -45 18 -14 6 -46 20 -72 31 l-48
22 -1 -48z"/>
</g>
</svg>
